<?xml version="1.0" encoding="utf-8"?>
<!-- Generator: Adobe Illustrator 27.5.0, SVG Export Plug-In . SVG Version: 6.00 Build 0)  -->
<svg version="1.1" xmlns="http://www.w3.org/2000/svg" xmlns:xlink="http://www.w3.org/1999/xlink" x="0px" y="0px"
	 viewBox="0 0 500 500" style="enable-background:new 0 0 500 500;" xml:space="preserve">
<g id="background">
	<rect style="fill:#E1E1FC;" width="500" height="500"/>
	<g>
		<path style="opacity:0.68;fill:#F0F0FC;" d="M393.951,391.537H106.048c-12.79,0-23.158-10.368-23.158-23.158V121.33
			c0-12.79,10.368-23.158,23.158-23.158h287.903c12.79,0,23.158,10.368,23.158,23.158v247.049
			C417.109,381.169,406.741,391.537,393.951,391.537z"/>
		<circle style="fill:#F0F0FC;" cx="391.597" cy="85.733" r="5.235"/>
		<circle style="fill:#F0F0FC;" cx="377.551" cy="85.733" r="5.235"/>
		<circle style="fill:#F0F0FC;" cx="363.506" cy="85.733" r="5.235"/>
		<path style="fill:#F0F0FC;" d="M67.955,256.587c0-2.892,2.344-5.236,5.235-5.236c2.892,0,5.236,2.344,5.236,5.236
			c0,2.891-2.344,5.235-5.236,5.235C70.299,261.822,67.955,259.478,67.955,256.587z"/>
		<path style="fill:#F0F0FC;" d="M67.955,270.913c0-2.892,2.344-5.236,5.235-5.236c2.892,0,5.236,2.344,5.236,5.236
			s-2.344,5.236-5.236,5.236C70.299,276.148,67.955,273.804,67.955,270.913z"/>
		<path style="fill:#F0F0FC;" d="M67.955,285.238c0-2.892,2.344-5.236,5.235-5.236c2.892,0,5.236,2.344,5.236,5.236
			c0,2.891-2.344,5.235-5.236,5.235C70.299,290.474,67.955,288.13,67.955,285.238z"/>
	</g>
</g>
<g id="objects">
	<g>
		<g>
			<g>
				<g>
					<ellipse style="fill:#040962;" cx="268.14" cy="416.522" rx="6.801" ry="8.431"/>
					<ellipse style="fill:#040962;" cx="339.216" cy="416.522" rx="6.801" ry="8.431"/>
				</g>
				<path style="fill:#FFFFFF;" d="M340.036,398.273h-20.292c-5.647,0-10.224-4.577-10.224-10.224v-80.495h-13.047v80.495
					c0,5.647-4.577,10.224-10.224,10.224H267.32h-1.987c-3.069,0-5.556,2.488-5.556,5.556v1.171v9.97
					c0,0.686,0.556,1.242,1.242,1.242h5.059c0.686,0,1.242-0.556,1.242-1.242v-4.414c0-3.069,2.488-5.556,5.556-5.556h61.603
					c3.069,0,5.556,2.488,5.556,5.556v4.414c0,0.686,0.556,1.242,1.242,1.242h5.059c0.686,0,1.242-0.556,1.242-1.242v-9.97v-1.171
					c0-3.069-2.488-5.556-5.556-5.556H340.036z"/>
				<path style="fill:#3C4AA0;" d="M310.443,316.816H294.53c-1.066,0-1.931-0.864-1.931-1.931v-5.109
					c0-1.066,0.864-1.931,1.931-1.931h15.913c1.066,0,1.931,0.864,1.931,1.931v5.109
					C312.374,315.952,311.509,316.816,310.443,316.816z"/>
			</g>
			<g>
				<path style="fill:#111A75;" d="M367.92,298.2v8.2c0,2.04-1.65,3.69-3.69,3.69H251.04l0.11-11.89H367.92z"/>
				<path style="fill:#111A75;" d="M393.34,160.48L367.92,298.2h-30.05c0,0,8.51-2.92,9.71-22.26c0.61-9.77-0.65-23.73-5.81-43.62
					h1.49c5.78,0,10.47-4.69,10.47-10.47V148.9c0-1.13-0.14-2.21-0.39-3.26h27.64C388.84,145.64,394.76,152.76,393.34,160.48z"/>
				<path style="fill:#B4B0FA;" d="M381.62,160.48L356.2,298.2h-18.33c0,0,8.51-2.92,9.71-22.26c0.61-9.77-0.65-23.73-5.81-43.62
					h1.49c5.78,0,10.47-4.69,10.47-10.47V148.9c0-1.13-0.14-2.21-0.39-3.26h15.92C377.12,145.64,383.04,152.76,381.62,160.48z"/>
			</g>
		</g>
		<g>
			<path style="fill:#040962;" d="M341.83,135.32L341.83,135.32c0,0-7.121-24.098-7.121-50.053
				c0-25.955-10.094-34.813-21.011-34.813h-23.202c-12.709,0-23.192,9.915-23.936,22.602c-0.622,10.605-1.566,22.331-2.918,28.896
				c-2.884,14.007-8.837,41.002-13.997,55.211c-5.16,14.209-1.04,26.363,11.525,26.568c0,0-1.03,25.749,33.165,18.745
				c32.427-6.642,54.294-16.421,50.848-55.538C344.826,142.886,343.699,138.933,341.83,135.32z"/>
			<path style="fill:#101A77;" d="M278.314,79.718c-2.114,0-4.237-0.354-5.846-1.416c-1.602-1.058-2.504-2.688-2.684-4.844
				c-0.81-9.713,7.109-15.836,7.447-16.092c0.22-0.167,0.533-0.122,0.7,0.096c0.167,0.22,0.124,0.533-0.096,0.701
				c-0.079,0.059-7.818,6.057-7.056,15.212c0.155,1.861,0.888,3.2,2.238,4.092c4.316,2.849,13.287-0.074,13.378-0.104
				c0.261-0.088,0.546,0.056,0.632,0.317c0.087,0.262-0.056,0.545-0.317,0.632C286.456,78.397,282.401,79.718,278.314,79.718z"/>
			<path style="fill:#101A77;" d="M311.9,76.498c-0.269,0-0.491-0.213-0.5-0.483c-0.003-0.096-0.328-9.635-1.188-12.813
				c-0.072-0.267,0.085-0.541,0.352-0.613c0.271-0.074,0.543,0.086,0.613,0.352c0.89,3.29,1.209,12.645,1.223,13.041
				c0.009,0.276-0.207,0.507-0.483,0.516C311.91,76.498,311.904,76.498,311.9,76.498z"/>
			<path style="fill:#FCE8D4;" d="M350.669,140.278c-40.72,21.51-71.05,13.14-81.53,8.95c1.29-1.07,2.66-2.06,4.11-2.93
				c5.8-3.47,13.81-8.32,18.64-11.48c3.79-2.48,5.11-6.61,5.43-10.35c0.37-4.35-0.62-8.16-0.62-8.16h-3.39
				c-9.91,0-17.94-8.03-17.94-17.94v-22.37h36.53l4.97,43.99c0.98,8.67,8.31,15.21,17.03,15.21h6.13
				C344.329,135.198,348.159,137.178,350.669,140.278z"/>
			<path style="fill:#FE5A75;" d="M310.785,258.67c6.984,3.598,18.562,19.482,36.794,17.267c0.607-9.77-0.649-23.724-5.809-43.62
				h1.49c5.78,0,10.47-4.69,10.47-10.47v-72.95c0-3.269-1.15-6.269-3.062-8.625c-40.716,21.516-71.051,13.147-81.524,8.957
				c-2.84,2.365-5.279,5.191-7.184,8.388l-25.15,42.28c-1.56,2.61-4.37,4.21-7.41,4.21h-2.46v23.7h6.72c3.82,0,7.46-1.67,9.95-4.56
				l28.26-32.83c0,0,6.949,23.837-1.348,61.903l0.003,0.005C270.523,252.326,302.732,254.522,310.785,258.67z"/>
			<path style="fill:#FCE8D4;" d="M238.319,413.128c0,0-1.804,2.189-4.918,4.873c2.148,1.209,4.565,3.122,6.377,6.107
				c0,0,5.733-5.888,13.596-6.352c-0.891-2.469-1.971-4.82-3.225-6.607l0.168-19.005H235.39L238.319,413.128z"/>
			<path style="fill:#FFFFFF;" d="M239.778,424.107c-1.812-2.985-4.229-4.898-6.377-6.107c-4.314,3.718-11.148,8.389-19.232,9.527
				c0,0-4.21-0.34-6.13,2.51c-0.65,0.97,0,2.29,1.15,2.49c5.5,0.92,22.1,3.06,44.71-0.01c1.41-0.2,2.43-1.45,2.3-2.86
				c-0.244-2.67-1.228-7.479-2.825-11.903C245.511,418.219,239.778,424.107,239.778,424.107z"/>
			<path style="fill:#00BDFF;" d="M219.526,280.875c-11.468,3.172-4.392,38.553-4.392,38.553l-0.003,0.013
				c0.073,0.57,5.357,41.978,3.658,45.127c-1.7,3.17-4.39,10.25,3.66,15.62c0,0-3.66,13.42,9.28,11.95h3.66l0.001,0.005h14.928
				l0.832-93.945h23.145C260.084,291.859,228.342,278.436,219.526,280.875z"/>
			<path style="fill:#00AEF9;" d="M310.785,258.67c-8.052-4.148-40.261-6.344-40.261-6.344l-0.003-0.005
				c-0.001,0.003-0.001,0.005-0.001,0.007c0,0-37.57-8.3-46.11,0c-8.54,8.29-42.95,46.85-45.88,57.58c-1.89,6.93,0,11.47,0,11.47
				s-6.61,2.62-8.54,6.59c-4.14,8.52,4.11,15.098,4.148,15.129l0.003,0c0,0,5.01,1.039,11.686,9.216l29.302-32.885
				c0,0,0.001,0.009,0.002,0.013l0.003-0.013c0,0-7.076-35.381,4.392-38.553c8.816-2.439,40.558,10.984,54.768,17.323h63.575
				c0,0,8.509-2.916,9.71-22.26C329.347,278.152,317.769,262.268,310.785,258.67z"/>
			<path style="fill:#FCE8D4;" d="M174.14,343.097l-0.003,0l0.002,0.001l-11.22,20.25c0,0-2.329-0.583-5.785-1.576
				c1.291,2.654,2.532,6.054,1.878,8.41c0,0,5-0.645,10.28,3.311c0.631-1.412,1.274-2.982,1.918-4.775l14.617-16.405
				C179.15,344.135,174.14,343.097,174.14,343.097z"/>
			<path style="fill:#FFFFFF;" d="M159.012,370.182c0.654-2.355-0.587-5.756-1.878-8.41c-6.95-1.997-18.48-5.66-24.945-9.634
				c-0.87-0.54-1.99-0.37-2.64,0.43c-0.31,0.37-0.46,0.82-0.46,1.28c0,0.45,0.15,0.9,0.45,1.27c3.82,4.67,17.52,20.84,29.3,27.12
				c2.17,1.16,4.88,0.61,6.33-1.38c1.165-1.596,2.606-3.972,4.122-7.365C164.012,369.537,159.012,370.182,159.012,370.182z"/>
			<path style="fill:#FFCB9C;" d="M307.089,116.308c0,0-4.94,8.21-9.77,8.16c0.37-4.35-0.62-8.16-0.62-8.16H307.089z"/>
			<g>
				<path style="fill:#FF8DA3;" d="M271.873,190.92c-0.207,0-0.401-0.13-0.473-0.337c-0.056-0.162-5.47-16.328,3.573-31.48
					c0.142-0.239,0.449-0.314,0.686-0.173c0.237,0.141,0.315,0.448,0.174,0.686c-8.799,14.743-3.541,30.484-3.487,30.642
					c0.09,0.261-0.049,0.546-0.31,0.636C271.983,190.911,271.927,190.92,271.873,190.92z"/>
				<path style="fill:#FF8DA3;" d="M283.454,218.177c-0.245,0-0.46-0.181-0.494-0.431c-0.038-0.273,0.152-0.526,0.427-0.564
					l52.248-7.257l-3.145-52.732c-0.017-0.276,0.193-0.513,0.47-0.529c0.273-0.02,0.512,0.194,0.528,0.469l3.172,53.194
					c0.016,0.261-0.172,0.489-0.431,0.525l-52.706,7.32C283.501,218.175,283.478,218.177,283.454,218.177z"/>
				<path style="fill:#FF8DA3;" d="M283.455,232.682c-0.172,0-0.331-0.088-0.423-0.233l-1.112-1.766
					c-0.147-0.234-0.077-0.542,0.156-0.689c0.234-0.146,0.543-0.078,0.689,0.156l0.965,1.532l56.748-0.147h0.001
					c0.275,0,0.499,0.223,0.5,0.499c0.001,0.276-0.223,0.501-0.499,0.501L283.455,232.682L283.455,232.682z"/>
			</g>
			<path style="fill:#FFFFFF;" d="M290.975,100.653c0,0-4.51-1.945-5.217-0.796c-0.708,1.15,2.211,2.564,6.102,2.564
				s6.897-2.388,6.102-3.714C297.165,97.381,290.975,100.653,290.975,100.653z"/>
			<path style="fill:#FFCB9C;" d="M292.197,105.734c-1.526,0-2.617-0.532-2.685-0.566c-0.246-0.123-0.346-0.422-0.224-0.67
				c0.123-0.248,0.424-0.346,0.67-0.226c0.02,0.011,2.131,1.025,4.438-0.008c0.25-0.113,0.547-0.001,0.66,0.251
				c0.113,0.252,0,0.548-0.252,0.661C293.874,105.594,292.979,105.734,292.197,105.734z"/>
			<path style="fill:#FFCB9C;" d="M290.224,96.6c-0.987,0-1.768-0.434-2.157-0.801c-0.1-0.094-0.156-0.226-0.156-0.363v-12.38
				c0-2.502-2.359-3.135-2.383-3.141c-0.268-0.068-0.429-0.341-0.36-0.608c0.068-0.267,0.337-0.43,0.608-0.36
				c1.084,0.278,3.135,1.495,3.135,4.11v12.138c0.4,0.273,1.523,0.837,2.974-0.168c0.226-0.157,0.538-0.101,0.696,0.125
				c0.157,0.227,0.1,0.539-0.126,0.696C291.655,96.401,290.892,96.6,290.224,96.6z"/>
			<g>
				<path style="fill:#040962;" d="M297.452,84.855c-1.165,0-2.113,0.948-2.113,2.114c0,1.165,0.948,2.114,2.113,2.114
					c1.166,0,2.114-0.948,2.114-2.114C299.566,85.803,298.618,84.855,297.452,84.855z"/>
				<path style="fill:#040962;" d="M281.345,84.855c-1.166,0-2.114,0.948-2.114,2.114c0,1.165,0.948,2.114,2.114,2.114
					c1.165,0,2.113-0.948,2.113-2.114C283.458,85.803,282.51,84.855,281.345,84.855z"/>
			</g>
			<circle style="fill:#FCBFAC;" cx="303.675" cy="91.997" r="3.415"/>
			<path style="fill:#FCBFAC;" d="M281.349,91.998c0,1.89-1.53,3.41-3.42,3.41c-1.02,0-1.94-0.45-2.56-1.16v-4.51
				c0.62-0.71,1.54-1.16,2.56-1.16C279.819,88.578,281.349,90.108,281.349,91.998z"/>
			<path style="fill:#040962;" d="M302.735,80.46c-0.046,0-0.093-0.006-0.14-0.02c-5.978-1.743-8.289-0.098-8.311-0.082
				c-0.221,0.163-0.534,0.121-0.698-0.097c-0.166-0.218-0.128-0.527,0.089-0.695c0.105-0.082,2.666-1.99,9.2-0.085
				c0.266,0.077,0.418,0.355,0.341,0.62C303.151,80.319,302.952,80.46,302.735,80.46z"/>
			<path style="fill:#040962;" d="M277.091,80.46c-0.183,0-0.359-0.101-0.447-0.276c-0.123-0.247-0.023-0.547,0.224-0.671
				c3.325-1.663,7.113-0.493,7.273-0.442c0.263,0.084,0.408,0.364,0.325,0.627s-0.364,0.41-0.627,0.326
				c-0.035-0.01-3.568-1.094-6.524,0.383C277.242,80.443,277.166,80.46,277.091,80.46z"/>
			<path style="fill:#FFFFFF;" d="M323.765,59.188l-16.328-9.347c-1.609-2.676-4.533-4.477-7.876-4.477
				c-3.061,0-5.771,1.51-7.443,3.818c-4.252-1.978-6.843-0.801-7.821-0.137c-1.679-2.23-4.34-3.68-7.34-3.68
				c-5.069,0-9.193,4.125-9.193,9.194s4.124,9.194,9.193,9.194s9.194-4.125,9.194-9.194c0-1.713-0.479-3.312-1.299-4.687
				c0.757-0.516,2.953-1.545,6.716,0.159c-0.761,1.338-1.202,2.881-1.202,4.528c0,5.069,4.125,9.194,9.194,9.194
				c5.069,0,9.193-4.125,9.193-9.194c0-1.101-0.205-2.153-0.561-3.132l15.076,8.63c0.078,0.045,0.163,0.066,0.248,0.066
				c0.173,0,0.342-0.09,0.434-0.252C324.088,59.63,324.005,59.325,323.765,59.188z M276.957,62.752
				c-4.518,0-8.193-3.676-8.193-8.194s3.676-8.194,8.193-8.194c4.519,0,8.194,3.676,8.194,8.194S281.476,62.752,276.957,62.752z
				 M299.561,62.752c-4.519,0-8.194-3.676-8.194-8.194s3.676-8.194,8.194-8.194c4.518,0,8.193,3.676,8.193,8.194
				S304.078,62.752,299.561,62.752z"/>
		</g>
		<path style="fill:#F9FBFC;" d="M391.695,217.392c-0.013,0-0.026,0.002-0.039,0.002v-3.535c0-0.464-0.376-0.839-0.839-0.839h-17.08
			c-0.463,0-0.839,0.376-0.839,0.839v20.89c0,0.463,0.376,0.839,0.839,0.839h17.08c0.463,0,0.839-0.376,0.839-0.839v-4.367
			c0.013,0,0.026,0.002,0.039,0.002c2.993,0,5.428-2.915,5.428-6.497C397.123,220.306,394.689,217.392,391.695,217.392z
			 M391.695,228.385c-0.013,0-0.026-0.005-0.039-0.005v-8.983c0.013,0,0.026-0.005,0.039-0.005c1.89,0,3.428,2.017,3.428,4.497
			C395.123,226.368,393.585,228.385,391.695,228.385z"/>
		<g>
			<polygon style="fill:#040962;" points="379.043,248.639 372.621,248.639 311.784,428.068 318.12,428.068 375.832,257.855 
				433.544,428.068 439.88,428.068 			"/>
			<polygon style="fill:#040962;" points="120.957,248.639 60.12,428.068 66.456,428.068 124.168,257.855 181.88,428.068 
				188.216,428.068 127.379,248.639 			"/>
		</g>
		<g>
			<g>
				<polygon style="fill:#6161C9;" points="142.87,187.98 137.13,211.43 131.86,233 101,233 113.17,197.74 116.54,187.98 				"/>
				<polygon style="fill:#FFFFFF;" points="144.82,187.98 138.85,212.41 133.81,233 102.95,233 114.81,198.67 118.5,187.98 				"/>
				<path style="fill:#7F7FDD;" d="M141.252,230.418H90.917c-0.956,0-1.732,0.775-1.732,1.732v1.708
					c0,0.956,0.775,1.732,1.732,1.732h50.335c0.956,0,1.732-0.775,1.732-1.732v-1.708
					C142.983,231.193,142.208,230.418,141.252,230.418z"/>
				<polygon style="opacity:0.28;fill:#6161C9;" points="144.82,187.98 138.85,212.41 137.13,211.43 114.81,198.67 113.17,197.74 
					116.54,187.98 				"/>
			</g>
			<g>
				<path style="fill:#7F7FDD;" d="M195.446,194.784H83.149c-1.624,0-3.191-1.316-3.5-2.94l-13.741-72.129
					c-0.148-0.78,0.019-1.528,0.465-2.079l0.377-0.466c0.446-0.551,1.135-0.861,1.915-0.861h112.297c1.624,0,3.191,1.316,3.5,2.94
					l13.74,72.13c0.149,0.78-0.019,1.528-0.465,2.079l-0.377,0.466C196.915,194.474,196.226,194.784,195.446,194.784z"/>
				<path style="fill:#FFFFFF;" d="M195.496,192.595H84.921c-1.624,0-3.191-1.316-3.5-2.94l-13.412-70.407
					c-0.309-1.624,0.756-2.94,2.38-2.94h110.575c1.624,0,3.191,1.316,3.5,2.94l13.412,70.407
					C198.185,191.279,197.119,192.595,195.496,192.595z"/>
				<path style="fill:#553F77;" d="M193.926,190.02H85.509c-0.577,0-1.134-0.468-1.244-1.045l-13.153-69.047
					c-0.11-0.577,0.269-1.045,0.846-1.045h108.417c0.577,0,1.134,0.468,1.244,1.045l13.153,69.047
					C194.882,189.552,194.504,190.02,193.926,190.02z"/>
				<g>
					<g>
						<path style="fill:#5A91FF;" d="M76.004,126.127h1.651c0.456,0,0.755-0.37,0.668-0.826c-0.087-0.456-0.527-0.826-0.983-0.826
							h-1.651c-0.456,0-0.755,0.37-0.668,0.826C75.108,125.757,75.548,126.127,76.004,126.127z"/>
						<path style="fill:#362656;" d="M92.515,126.127h16.511c0.456,0,0.755-0.37,0.668-0.826c-0.087-0.456-0.527-0.826-0.983-0.826
							H92.2c-0.456,0-0.755,0.37-0.668,0.826C91.619,125.757,92.059,126.127,92.515,126.127z"/>
						<path style="fill:#7859B5;" d="M112.328,126.127h1.651c0.456,0,0.755-0.37,0.668-0.826c-0.087-0.456-0.527-0.826-0.983-0.826
							h-1.651c-0.456,0-0.755,0.37-0.668,0.826C111.432,125.757,111.872,126.127,112.328,126.127z"/>
						<path style="fill:#7859B5;" d="M128.839,126.127h5.415c0.456,0,0.755-0.37,0.668-0.826c-0.087-0.456-0.527-0.826-0.983-0.826
							h-5.415c-0.456,0-0.755,0.37-0.668,0.826C127.943,125.757,128.383,126.127,128.839,126.127z"/>
						<path style="fill:#735F99;" d="M117.281,126.127h8.256c0.456,0,0.755-0.37,0.668-0.826c-0.087-0.456-0.527-0.826-0.983-0.826
							h-8.255c-0.456,0-0.755,0.37-0.668,0.826C116.385,125.757,116.825,126.127,117.281,126.127z"/>
						<path style="fill:#735F99;" d="M80.957,126.127h8.255c0.456,0,0.755-0.37,0.668-0.826c-0.087-0.456-0.527-0.826-0.983-0.826
							h-8.255c-0.456,0-0.755,0.37-0.668,0.826C80.061,125.757,80.501,126.127,80.957,126.127z"/>
						<path style="fill:#735F99;" d="M101.553,130.237c-0.087-0.456-0.527-0.826-0.983-0.826H82.409
							c-0.456,0-0.755,0.37-0.668,0.826c0.087,0.456,0.527,0.826,0.983,0.826h18.162
							C101.341,131.063,101.64,130.693,101.553,130.237z"/>
						<path style="fill:#FF6498;" d="M79.106,129.412H76.63c-0.456,0-0.755,0.37-0.668,0.826c0.087,0.456,0.527,0.826,0.983,0.826
							h2.477c0.456,0,0.755-0.37,0.668-0.826C80.002,129.781,79.562,129.412,79.106,129.412z"/>
						<path style="fill:#735F99;" d="M120.384,129.412h-16.511c-0.456,0-0.755,0.37-0.668,0.826
							c0.087,0.456,0.527,0.826,0.983,0.826h16.511c0.456,0,0.755-0.37,0.668-0.826C121.28,129.781,120.839,129.412,120.384,129.412
							z"/>
						<path style="fill:#7859B5;" d="M126.477,131.063c0.456,0,0.755-0.37,0.668-0.826c-0.087-0.456-0.527-0.826-0.983-0.826h-2.477
							c-0.456,0-0.755,0.37-0.668,0.826c0.087,0.456,0.527,0.826,0.983,0.826H126.477z"/>
						<path style="fill:#735F99;" d="M134.88,129.412h-5.415c-0.456,0-0.755,0.37-0.668,0.826c0.087,0.456,0.527,0.826,0.983,0.826
							h5.415c0.456,0,0.755-0.37,0.668-0.826C135.776,129.781,135.336,129.412,134.88,129.412z"/>
						<path style="fill:#7859B5;" d="M115.86,135.999c0.456,0,0.755-0.37,0.668-0.826c-0.087-0.456-0.527-0.826-0.983-0.826h-1.651
							c-0.456,0-0.755,0.37-0.668,0.826c0.087,0.456,0.527,0.826,0.983,0.826H115.86z"/>
						<path style="fill:#FFEE4D;" d="M77.885,135.999h1.651c0.456,0,0.755-0.37,0.668-0.826c-0.087-0.456-0.527-0.826-0.983-0.826
							H77.57c-0.456,0-0.755,0.37-0.668,0.826C76.989,135.63,77.429,135.999,77.885,135.999z"/>
						<path style="fill:#5A91FF;" d="M118.179,135.174c0.087,0.456,0.527,0.826,0.983,0.826h8.255c0.456,0,0.755-0.37,0.668-0.826
							c-0.087-0.456-0.527-0.826-0.983-0.826h-8.256C118.391,134.348,118.092,134.718,118.179,135.174z"/>
						<path style="fill:#5A91FF;" d="M82.838,135.999h8.255c0.456,0,0.755-0.37,0.668-0.826c-0.087-0.456-0.527-0.826-0.983-0.826
							h-8.255c-0.456,0-0.755,0.37-0.668,0.826C81.942,135.63,82.382,135.999,82.838,135.999z"/>
						<path style="fill:#5A91FF;" d="M135.82,134.348h-5.415c-0.456,0-0.755,0.37-0.668,0.826c0.087,0.456,0.527,0.826,0.983,0.826
							h5.415c0.456,0,0.755-0.37,0.668-0.826C136.716,134.718,136.276,134.348,135.82,134.348z"/>
						<path style="fill:#7859B5;" d="M94.396,135.999h16.511c0.456,0,0.755-0.37,0.668-0.826c-0.087-0.456-0.527-0.826-0.983-0.826
							H94.081c-0.456,0-0.755,0.37-0.668,0.826C93.5,135.63,93.94,135.999,94.396,135.999z"/>
						<path style="fill:#735F99;" d="M136.761,139.285h-5.415c-0.456,0-0.755,0.37-0.668,0.826c0.087,0.456,0.527,0.826,0.983,0.826
							h5.415c0.456,0,0.755-0.37,0.668-0.826C137.656,139.654,137.216,139.285,136.761,139.285z"/>
						<path style="fill:#362656;" d="M128.043,139.285h-2.477c-0.456,0-0.755,0.37-0.668,0.826c0.087,0.456,0.527,0.826,0.983,0.826
							h2.477c0.456,0,0.755-0.37,0.668-0.826C128.939,139.654,128.499,139.285,128.043,139.285z"/>
						<path style="fill:#735F99;" d="M123.247,140.11c-0.087-0.456-0.527-0.826-0.983-0.826h-16.511
							c-0.456,0-0.755,0.37-0.668,0.826c0.087,0.456,0.527,0.826,0.983,0.826h16.511
							C123.035,140.936,123.334,140.566,123.247,140.11z"/>
						<path style="fill:#735F99;" d="M83.621,140.11c0.087,0.456,0.527,0.826,0.983,0.826h18.162c0.456,0,0.755-0.37,0.668-0.826
							c-0.087-0.456-0.527-0.826-0.983-0.826H84.289C83.833,139.285,83.534,139.654,83.621,140.11z"/>
						<path style="fill:#5A91FF;" d="M80.987,139.285h-2.477c-0.456,0-0.755,0.37-0.668,0.826c0.087,0.456,0.527,0.826,0.983,0.826
							h2.477c0.456,0,0.755-0.37,0.668-0.826C81.883,139.654,81.443,139.285,80.987,139.285z"/>
						<path style="fill:#5A91FF;" d="M137.701,144.221h-2.113c-0.456,0-0.755,0.37-0.668,0.826c0.087,0.456,0.527,0.826,0.983,0.826
							h2.113c0.456,0,0.755-0.37,0.668-0.826C138.597,144.591,138.157,144.221,137.701,144.221z"/>
						<path style="fill:#5A91FF;" d="M120.06,145.047c-0.087-0.456-0.527-0.826-0.983-0.826h-1.651c-0.456,0-0.755,0.37-0.668,0.826
							c0.087,0.456,0.527,0.826,0.983,0.826h1.651C119.847,145.872,120.147,145.503,120.06,145.047z"/>
						<path style="fill:#735F99;" d="M114.124,144.221H97.613c-0.456,0-0.755,0.37-0.668,0.826c0.087,0.456,0.527,0.826,0.983,0.826
							h16.511c0.456,0,0.755-0.37,0.668-0.826C115.02,144.591,114.58,144.221,114.124,144.221z"/>
						<path style="fill:#735F99;" d="M133.268,145.047c-0.087-0.456-0.527-0.826-0.983-0.826h-9.906
							c-0.456,0-0.755,0.37-0.668,0.826c0.087,0.456,0.527,0.826,0.983,0.826h9.906
							C133.056,145.872,133.355,145.503,133.268,145.047z"/>
						<path style="fill:#7859B5;" d="M84.719,145.872h9.907c0.456,0,0.755-0.37,0.668-0.826c-0.087-0.456-0.527-0.826-0.983-0.826
							h-9.906c-0.456,0-0.755,0.37-0.668,0.826C83.823,145.503,84.263,145.872,84.719,145.872z"/>
						<path style="fill:#FF6498;" d="M79.765,145.872h1.651c0.456,0,0.755-0.37,0.668-0.826c-0.087-0.456-0.527-0.826-0.983-0.826
							h-1.651c-0.456,0-0.755,0.37-0.668,0.826C78.87,145.503,79.31,145.872,79.765,145.872z"/>
						<path style="fill:#FFEE4D;" d="M80.706,150.809h1.651c0.456,0,0.755-0.37,0.668-0.826c-0.087-0.456-0.527-0.826-0.983-0.826
							h-1.651c-0.456,0-0.755,0.37-0.668,0.826C79.81,150.439,80.25,150.809,80.706,150.809z"/>
						<path style="fill:#362656;" d="M85.659,150.809h8.256c0.456,0,0.755-0.37,0.668-0.826c-0.087-0.456-0.527-0.826-0.983-0.826
							h-8.255c-0.456,0-0.755,0.37-0.668,0.826C84.763,150.439,85.203,150.809,85.659,150.809z"/>
						<path style="fill:#735F99;" d="M129.924,149.158h-8.255c-0.456,0-0.755,0.37-0.668,0.826c0.087,0.456,0.527,0.826,0.983,0.826
							h8.255c0.456,0,0.755-0.37,0.668-0.826C130.82,149.527,130.38,149.158,129.924,149.158z"/>
						<path style="fill:#735F99;" d="M138.641,149.158h-5.415c-0.456,0-0.755,0.37-0.668,0.826c0.087,0.456,0.527,0.826,0.983,0.826
							h5.415c0.456,0,0.755-0.37,0.668-0.826C139.537,149.527,139.097,149.158,138.641,149.158z"/>
						<path style="fill:#5A91FF;" d="M117.03,150.809h1.651c0.456,0,0.755-0.37,0.668-0.826c-0.087-0.456-0.527-0.826-0.983-0.826
							h-1.651c-0.456,0-0.755,0.37-0.668,0.826C116.134,150.439,116.574,150.809,117.03,150.809z"/>
						<path style="fill:#735F99;" d="M97.217,150.809h16.511c0.456,0,0.755-0.37,0.668-0.826c-0.087-0.456-0.527-0.826-0.983-0.826
							H96.902c-0.456,0-0.755,0.37-0.668,0.826C96.321,150.439,96.761,150.809,97.217,150.809z"/>
						<path style="fill:#735F99;" d="M86.442,154.919c0.087,0.456,0.527,0.826,0.983,0.826h18.162c0.456,0,0.755-0.37,0.668-0.826
							c-0.087-0.456-0.527-0.826-0.983-0.826H87.11C86.655,154.094,86.355,154.464,86.442,154.919z"/>
						<path style="fill:#FF6498;" d="M83.808,154.094h-2.477c-0.456,0-0.755,0.37-0.668,0.826c0.087,0.456,0.527,0.826,0.983,0.826
							h2.477c0.456,0,0.755-0.37,0.668-0.826C84.704,154.464,84.264,154.094,83.808,154.094z"/>
						<path style="fill:#735F99;" d="M126.068,154.919c-0.087-0.456-0.527-0.826-0.983-0.826h-16.511
							c-0.456,0-0.755,0.37-0.668,0.826c0.087,0.456,0.527,0.826,0.983,0.826H125.4
							C125.856,155.745,126.155,155.375,126.068,154.919z"/>
						<path style="fill:#362656;" d="M131.179,155.745c0.456,0,0.755-0.37,0.668-0.826c-0.087-0.456-0.527-0.826-0.983-0.826h-2.477
							c-0.456,0-0.755,0.37-0.668,0.826c0.087,0.456,0.527,0.826,0.983,0.826H131.179z"/>
						<path style="fill:#735F99;" d="M139.582,154.094h-5.415c-0.456,0-0.755,0.37-0.668,0.826c0.087,0.456,0.527,0.826,0.983,0.826
							h5.415c0.456,0,0.755-0.37,0.668-0.826C140.478,154.464,140.037,154.094,139.582,154.094z"/>
						<path style="fill:#7859B5;" d="M121.23,159.856c-0.087-0.456-0.527-0.826-0.983-0.826h-1.651c-0.456,0-0.755,0.37-0.668,0.826
							c0.087,0.456,0.527,0.826,0.983,0.826h1.651C121.017,160.682,121.317,160.312,121.23,159.856z"/>
						<path style="fill:#362656;" d="M140.522,159.031h-5.415c-0.456,0-0.755,0.37-0.668,0.826c0.087,0.456,0.527,0.826,0.983,0.826
							h5.415c0.456,0,0.755-0.37,0.668-0.826C141.418,159.4,140.978,159.031,140.522,159.031z"/>
						<path style="fill:#5A91FF;" d="M99.097,160.682h16.511c0.456,0,0.755-0.37,0.668-0.826c-0.087-0.456-0.527-0.826-0.983-0.826
							H98.783c-0.456,0-0.755,0.37-0.668,0.826C98.202,160.312,98.642,160.682,99.097,160.682z"/>
						<path style="fill:#735F99;" d="M87.54,160.682h8.256c0.456,0,0.755-0.37,0.668-0.826c-0.087-0.456-0.527-0.826-0.983-0.826
							h-8.255c-0.456,0-0.755,0.37-0.668,0.826C86.644,160.312,87.084,160.682,87.54,160.682z"/>
						<path style="fill:#FFEE4D;" d="M82.587,160.682h1.651c0.456,0,0.755-0.37,0.668-0.826c-0.087-0.456-0.527-0.826-0.983-0.826
							h-1.651c-0.456,0-0.755,0.37-0.668,0.826C81.691,160.312,82.131,160.682,82.587,160.682z"/>
						<path style="fill:#7859B5;" d="M123.864,160.682h8.255c0.456,0,0.755-0.37,0.668-0.826c-0.087-0.456-0.527-0.826-0.983-0.826
							h-8.255c-0.456,0-0.755,0.37-0.668,0.826C122.968,160.312,123.408,160.682,123.864,160.682z"/>
						<path style="fill:#7859B5;" d="M98.387,165.618c0.456,0,0.755-0.37,0.668-0.826c-0.087-0.456-0.527-0.826-0.983-0.826h-9.907
							c-0.456,0-0.755,0.37-0.668,0.826c0.087,0.456,0.527,0.826,0.983,0.826H98.387z"/>
						<path style="fill:#7859B5;" d="M141.462,163.967h-2.113c-0.456,0-0.755,0.37-0.668,0.826c0.087,0.456,0.527,0.826,0.983,0.826
							h2.113c0.456,0,0.755-0.37,0.668-0.826C142.358,164.337,141.918,163.967,141.462,163.967z"/>
						<path style="fill:#5A91FF;" d="M121.502,165.618h1.651c0.456,0,0.755-0.37,0.668-0.826c-0.087-0.456-0.527-0.826-0.983-0.826
							h-1.651c-0.456,0-0.755,0.37-0.668,0.826C120.606,165.248,121.046,165.618,121.502,165.618z"/>
						<path style="fill:#735F99;" d="M101.689,165.618H118.2c0.456,0,0.755-0.37,0.668-0.826c-0.087-0.456-0.527-0.826-0.983-0.826
							h-16.511c-0.456,0-0.755,0.37-0.668,0.826C100.793,165.248,101.233,165.618,101.689,165.618z"/>
						<path style="fill:#FF6498;" d="M83.527,165.618h1.651c0.456,0,0.755-0.37,0.668-0.826c-0.087-0.456-0.527-0.826-0.983-0.826
							h-1.651c-0.456,0-0.755,0.37-0.668,0.826C82.631,165.248,83.071,165.618,83.527,165.618z"/>
						<path style="fill:#735F99;" d="M126.455,165.618h9.907c0.456,0,0.755-0.37,0.668-0.826c-0.087-0.456-0.527-0.826-0.983-0.826
							h-9.907c-0.456,0-0.755,0.37-0.668,0.826C125.559,165.248,125.999,165.618,126.455,165.618z"/>
						<path style="fill:#7859B5;" d="M142.403,168.903h-5.415c-0.456,0-0.755,0.37-0.668,0.826c0.087,0.456,0.527,0.826,0.983,0.826
							h5.415c0.456,0,0.755-0.37,0.668-0.826C143.299,169.273,142.859,168.903,142.403,168.903z"/>
						<path style="fill:#5A91FF;" d="M133.685,168.903h-2.477c-0.456,0-0.755,0.37-0.668,0.826c0.087,0.456,0.527,0.826,0.983,0.826
							H134c0.456,0,0.755-0.37,0.668-0.826C134.581,169.273,134.141,168.903,133.685,168.903z"/>
						<path style="fill:#362656;" d="M108.094,168.903H89.932c-0.456,0-0.755,0.37-0.668,0.826c0.087,0.456,0.527,0.826,0.983,0.826
							h18.162c0.456,0,0.755-0.37,0.668-0.826C108.989,169.273,108.549,168.903,108.094,168.903z"/>
						<path style="fill:#735F99;" d="M127.907,168.903h-16.511c-0.456,0-0.755,0.37-0.668,0.826
							c0.087,0.456,0.527,0.826,0.983,0.826h16.511c0.456,0,0.755-0.37,0.668-0.826
							C128.803,169.273,128.362,168.903,127.907,168.903z"/>
						<path style="fill:#362656;" d="M148.956,126.127h16.511c0.456,0,0.755-0.37,0.668-0.826c-0.087-0.456-0.527-0.826-0.983-0.826
							h-16.511c-0.456,0-0.755,0.37-0.668,0.826C148.06,125.757,148.5,126.127,148.956,126.127z"/>
						<path style="fill:#7859B5;" d="M168.769,126.127h1.651c0.456,0,0.755-0.37,0.668-0.826c-0.087-0.456-0.527-0.826-0.983-0.826
							h-1.651c-0.456,0-0.755,0.37-0.668,0.826C167.873,125.757,168.313,126.127,168.769,126.127z"/>
						<path style="fill:#735F99;" d="M173.722,126.127h4.84c0.456,0,0.755-0.37,0.668-0.826c-0.087-0.456-0.527-0.826-0.983-0.826
							h-4.84c-0.456,0-0.755,0.37-0.668,0.826C172.826,125.757,173.266,126.127,173.722,126.127z"/>
						<path style="fill:#735F99;" d="M137.399,126.127h8.255c0.456,0,0.755-0.37,0.668-0.826c-0.087-0.456-0.527-0.826-0.983-0.826
							h-8.255c-0.456,0-0.755,0.37-0.668,0.826C136.503,125.757,136.943,126.127,137.399,126.127z"/>
						<path style="fill:#735F99;" d="M157.038,130.237c-0.087-0.456-0.527-0.826-0.983-0.826h-18.162
							c-0.456,0-0.755,0.37-0.668,0.826c0.087,0.456,0.527,0.826,0.983,0.826h18.162
							C156.825,131.063,157.124,130.693,157.038,130.237z"/>
						<path style="fill:#735F99;" d="M179.188,129.412h-19.831c-0.456,0-0.755,0.37-0.668,0.826
							c0.087,0.456,0.527,0.826,0.983,0.826h19.831c0.456,0,0.755-0.37,0.668-0.826
							C180.084,129.781,179.644,129.412,179.188,129.412z"/>
						<path style="fill:#7859B5;" d="M172.301,135.999c0.456,0,0.755-0.37,0.668-0.826c-0.087-0.456-0.527-0.826-0.983-0.826h-1.651
							c-0.456,0-0.755,0.37-0.668,0.826c0.087,0.456,0.527,0.826,0.983,0.826H172.301z"/>
						<path style="fill:#5A91FF;" d="M174.62,135.174c0.087,0.456,0.527,0.826,0.983,0.826h4.427c0.456,0,0.755-0.37,0.668-0.826
							c-0.087-0.456-0.527-0.826-0.983-0.826h-4.427C174.833,134.348,174.533,134.718,174.62,135.174z"/>
						<path style="fill:#5A91FF;" d="M139.279,135.999h8.255c0.456,0,0.755-0.37,0.668-0.826c-0.087-0.456-0.527-0.826-0.983-0.826
							h-8.255c-0.456,0-0.755,0.37-0.668,0.826C138.383,135.63,138.823,135.999,139.279,135.999z"/>
						<path style="fill:#7859B5;" d="M150.837,135.999h16.511c0.456,0,0.755-0.37,0.668-0.826c-0.087-0.456-0.527-0.826-0.983-0.826
							h-16.511c-0.456,0-0.755,0.37-0.668,0.826C149.941,135.63,150.381,135.999,150.837,135.999z"/>
						<path style="fill:#735F99;" d="M181.752,140.11c-0.087-0.456-0.527-0.826-0.983-0.826h-18.575
							c-0.456,0-0.755,0.37-0.668,0.826c0.087,0.456,0.527,0.826,0.983,0.826h18.575C181.54,140.936,181.839,140.566,181.752,140.11
							z"/>
						<path style="fill:#735F99;" d="M140.063,140.11c0.087,0.456,0.527,0.826,0.983,0.826h18.162c0.456,0,0.755-0.37,0.668-0.826
							c-0.087-0.456-0.527-0.826-0.983-0.826h-18.162C140.275,139.285,139.976,139.654,140.063,140.11z"/>
						<path style="fill:#5A91FF;" d="M176.501,145.047c-0.087-0.456-0.527-0.826-0.983-0.826h-1.651
							c-0.456,0-0.755,0.37-0.668,0.826c0.087,0.456,0.527,0.826,0.983,0.826h1.651
							C176.289,145.872,176.588,145.503,176.501,145.047z"/>
						<path style="fill:#735F99;" d="M170.565,144.221h-16.511c-0.456,0-0.755,0.37-0.668,0.826
							c0.087,0.456,0.527,0.826,0.983,0.826h16.511c0.456,0,0.755-0.37,0.668-0.826
							C171.461,144.591,171.021,144.221,170.565,144.221z"/>
						<path style="fill:#735F99;" d="M183.105,145.047c-0.087-0.456-0.527-0.826-0.983-0.826h-3.302
							c-0.456,0-0.755,0.37-0.668,0.826c0.087,0.456,0.527,0.826,0.983,0.826h3.302
							C182.893,145.872,183.192,145.503,183.105,145.047z"/>
						<path style="fill:#7859B5;" d="M141.16,145.872h9.906c0.456,0,0.755-0.37,0.668-0.826c-0.087-0.456-0.527-0.826-0.983-0.826
							h-9.907c-0.456,0-0.755,0.37-0.668,0.826C140.264,145.503,140.704,145.872,141.16,145.872z"/>
						<path style="fill:#362656;" d="M142.1,150.809h8.256c0.456,0,0.755-0.37,0.668-0.826c-0.087-0.456-0.527-0.826-0.983-0.826
							h-8.255c-0.456,0-0.755,0.37-0.668,0.826C141.204,150.439,141.644,150.809,142.1,150.809z"/>
						<path style="fill:#735F99;" d="M182.405,149.158h-4.296c-0.456,0-0.755,0.37-0.668,0.826c0.087,0.456,0.527,0.826,0.983,0.826
							h4.296c0.456,0,0.755-0.37,0.668-0.826C183.301,149.527,182.861,149.158,182.405,149.158z"/>
						<path style="fill:#5A91FF;" d="M173.471,150.809h1.651c0.456,0,0.755-0.37,0.668-0.826c-0.087-0.456-0.527-0.826-0.983-0.826
							h-1.651c-0.456,0-0.755,0.37-0.668,0.826C172.575,150.439,173.015,150.809,173.471,150.809z"/>
						<path style="fill:#735F99;" d="M153.658,150.809h16.511c0.456,0,0.755-0.37,0.668-0.826c-0.087-0.456-0.527-0.826-0.983-0.826
							h-16.511c-0.456,0-0.755,0.37-0.668,0.826C152.762,150.439,153.202,150.809,153.658,150.809z"/>
						<path style="fill:#735F99;" d="M142.883,154.919c0.087,0.456,0.527,0.826,0.983,0.826h18.162c0.456,0,0.755-0.37,0.668-0.826
							c-0.087-0.456-0.527-0.826-0.983-0.826h-18.162C143.096,154.094,142.797,154.464,142.883,154.919z"/>
						<path style="fill:#735F99;" d="M184.986,154.919c-0.087-0.456-0.527-0.826-0.983-0.826h-18.987
							c-0.456,0-0.755,0.37-0.668,0.826c0.087,0.456,0.527,0.826,0.983,0.826h18.987
							C184.774,155.745,185.073,155.375,184.986,154.919z"/>
						<path style="fill:#7859B5;" d="M177.671,159.856c-0.087-0.456-0.527-0.826-0.983-0.826h-1.651
							c-0.456,0-0.755,0.37-0.668,0.826c0.087,0.456,0.527,0.826,0.983,0.826h1.651
							C177.459,160.682,177.758,160.312,177.671,159.856z"/>
						<path style="fill:#5A91FF;" d="M155.539,160.682h16.511c0.456,0,0.755-0.37,0.668-0.826c-0.087-0.456-0.527-0.826-0.983-0.826
							h-16.511c-0.456,0-0.755,0.37-0.668,0.826C154.643,160.312,155.083,160.682,155.539,160.682z"/>
						<path style="fill:#735F99;" d="M143.981,160.682h8.255c0.456,0,0.755-0.37,0.668-0.826c-0.087-0.456-0.527-0.826-0.983-0.826
							h-8.255c-0.456,0-0.755,0.37-0.668,0.826C143.085,160.312,143.525,160.682,143.981,160.682z"/>
						<path style="fill:#7859B5;" d="M180.305,160.682h4.953c0.456,0,0.755-0.37,0.668-0.826c-0.087-0.456-0.527-0.826-0.983-0.826
							h-4.953c-0.456,0-0.755,0.37-0.668,0.826C179.409,160.312,179.849,160.682,180.305,160.682z"/>
						<path style="fill:#7859B5;" d="M154.828,165.618c0.456,0,0.755-0.37,0.668-0.826c-0.087-0.456-0.527-0.826-0.983-0.826h-9.907
							c-0.456,0-0.755,0.37-0.668,0.826c0.087,0.456,0.527,0.826,0.983,0.826H154.828z"/>
						<path style="fill:#5A91FF;" d="M177.943,165.618h1.651c0.456,0,0.755-0.37,0.668-0.826c-0.087-0.456-0.527-0.826-0.983-0.826
							h-1.651c-0.456,0-0.755,0.37-0.668,0.826C177.047,165.248,177.487,165.618,177.943,165.618z"/>
						<path style="fill:#735F99;" d="M158.13,165.618h16.511c0.456,0,0.755-0.37,0.668-0.826c-0.087-0.456-0.527-0.826-0.983-0.826
							h-16.511c-0.456,0-0.755,0.37-0.668,0.826C157.234,165.248,157.674,165.618,158.13,165.618z"/>
						<path style="fill:#735F99;" d="M182.896,165.618h3.602c0.456,0,0.755-0.37,0.668-0.826c-0.087-0.456-0.527-0.826-0.983-0.826
							h-3.601c-0.456,0-0.755,0.37-0.668,0.826C182.001,165.248,182.441,165.618,182.896,165.618z"/>
						<path style="fill:#5A91FF;" d="M187.237,168.903h-0.544c-0.456,0-0.755,0.37-0.668,0.826c0.087,0.456,0.527,0.826,0.983,0.826
							h0.544c0.456,0,0.755-0.37,0.668-0.826C188.133,169.273,187.693,168.903,187.237,168.903z"/>
						<path style="fill:#362656;" d="M164.535,168.903h-18.162c-0.456,0-0.755,0.37-0.668,0.826
							c0.087,0.456,0.527,0.826,0.983,0.826h18.162c0.456,0,0.755-0.37,0.668-0.826
							C165.431,169.273,164.991,168.903,164.535,168.903z"/>
						<path style="fill:#735F99;" d="M184.348,168.903h-16.511c-0.456,0-0.755,0.37-0.668,0.826
							c0.087,0.456,0.527,0.826,0.983,0.826h16.511c0.456,0,0.755-0.37,0.668-0.826
							C185.244,169.273,184.804,168.903,184.348,168.903z"/>
						<path style="fill:#5A91FF;" d="M86.629,168.903h-2.477c-0.456,0-0.755,0.37-0.668,0.826c0.087,0.456,0.527,0.826,0.983,0.826
							h2.477c0.456,0,0.755-0.37,0.668-0.826C87.525,169.273,87.085,168.903,86.629,168.903z"/>
					</g>
					<g>
						<path style="fill:#5A91FF;" d="M85.229,174.555h1.651c0.456,0,0.755-0.37,0.668-0.826c-0.087-0.456-0.527-0.826-0.983-0.826
							h-1.651c-0.456,0-0.755,0.37-0.668,0.826C84.333,174.185,84.774,174.555,85.229,174.555z"/>
						<path style="fill:#362656;" d="M101.74,174.555h16.511c0.456,0,0.755-0.37,0.668-0.826c-0.087-0.456-0.527-0.826-0.983-0.826
							h-16.511c-0.456,0-0.755,0.37-0.668,0.826C100.844,174.185,101.284,174.555,101.74,174.555z"/>
						<path style="fill:#7859B5;" d="M121.553,174.555h1.651c0.456,0,0.755-0.37,0.668-0.826c-0.087-0.456-0.527-0.826-0.983-0.826
							h-1.651c-0.456,0-0.755,0.37-0.668,0.826C120.657,174.185,121.097,174.555,121.553,174.555z"/>
						<path style="fill:#7859B5;" d="M138.064,174.555h5.415c0.456,0,0.755-0.37,0.668-0.826c-0.087-0.456-0.527-0.826-0.983-0.826
							h-5.415c-0.456,0-0.755,0.37-0.668,0.826C137.168,174.185,137.608,174.555,138.064,174.555z"/>
						<path style="fill:#735F99;" d="M126.507,174.555h8.255c0.456,0,0.755-0.37,0.668-0.826c-0.087-0.456-0.527-0.826-0.983-0.826
							h-8.255c-0.456,0-0.755,0.37-0.668,0.826C125.611,174.185,126.051,174.555,126.507,174.555z"/>
						<path style="fill:#735F99;" d="M90.183,174.555h8.256c0.456,0,0.755-0.37,0.668-0.826c-0.087-0.456-0.527-0.826-0.983-0.826
							h-8.255c-0.456,0-0.755,0.37-0.668,0.826C89.287,174.185,89.727,174.555,90.183,174.555z"/>
						<path style="fill:#735F99;" d="M110.779,178.666c-0.087-0.456-0.527-0.826-0.983-0.826H91.634
							c-0.456,0-0.755,0.37-0.668,0.826c0.087,0.456,0.527,0.826,0.983,0.826h18.162
							C110.566,179.491,110.866,179.122,110.779,178.666z"/>
						<path style="fill:#FF6498;" d="M88.332,177.84h-2.477c-0.456,0-0.755,0.37-0.668,0.826c0.087,0.456,0.527,0.826,0.983,0.826
							h2.477c0.456,0,0.755-0.37,0.668-0.826C89.228,178.21,88.788,177.84,88.332,177.84z"/>
						<path style="fill:#735F99;" d="M129.609,177.84h-16.511c-0.456,0-0.755,0.37-0.668,0.826c0.087,0.456,0.527,0.826,0.983,0.826
							h16.511c0.456,0,0.755-0.37,0.668-0.826C130.505,178.21,130.065,177.84,129.609,177.84z"/>
						<path style="fill:#7859B5;" d="M135.702,179.491c0.456,0,0.755-0.37,0.668-0.826c-0.087-0.456-0.527-0.826-0.983-0.826h-2.477
							c-0.456,0-0.755,0.37-0.668,0.826c0.087,0.456,0.527,0.826,0.983,0.826H135.702z"/>
						<path style="fill:#735F99;" d="M144.105,177.84h-5.415c-0.456,0-0.755,0.37-0.668,0.826c0.087,0.456,0.527,0.826,0.983,0.826
							h5.415c0.456,0,0.755-0.37,0.668-0.826C145.001,178.21,144.561,177.84,144.105,177.84z"/>
						<path style="fill:#7859B5;" d="M125.085,184.428c0.456,0,0.755-0.37,0.668-0.826c-0.087-0.456-0.527-0.826-0.983-0.826h-1.651
							c-0.456,0-0.755,0.37-0.668,0.826c0.087,0.456,0.527,0.826,0.983,0.826H125.085z"/>
						<path style="fill:#FFEE4D;" d="M87.11,184.428h1.651c0.456,0,0.755-0.37,0.668-0.826c-0.087-0.456-0.527-0.826-0.983-0.826
							h-1.651c-0.456,0-0.755,0.37-0.668,0.826C86.214,184.058,86.654,184.428,87.11,184.428z"/>
						<path style="fill:#5A91FF;" d="M127.404,183.602c0.087,0.456,0.527,0.826,0.983,0.826h8.255c0.456,0,0.755-0.37,0.668-0.826
							c-0.087-0.456-0.527-0.826-0.983-0.826h-8.255C127.617,182.776,127.318,183.146,127.404,183.602z"/>
						<path style="fill:#5A91FF;" d="M92.063,184.428h8.256c0.456,0,0.755-0.37,0.668-0.826c-0.087-0.456-0.527-0.826-0.983-0.826
							h-8.255c-0.456,0-0.755,0.37-0.668,0.826C91.167,184.058,91.607,184.428,92.063,184.428z"/>
						<path style="fill:#5A91FF;" d="M145.046,182.776h-5.415c-0.456,0-0.755,0.37-0.668,0.826c0.087,0.456,0.527,0.826,0.983,0.826
							h5.415c0.456,0,0.755-0.37,0.668-0.826C145.941,183.146,145.501,182.776,145.046,182.776z"/>
						<path style="fill:#7859B5;" d="M103.621,184.428h16.511c0.456,0,0.755-0.37,0.668-0.826c-0.087-0.456-0.527-0.826-0.983-0.826
							h-16.511c-0.456,0-0.755,0.37-0.668,0.826C102.725,184.058,103.165,184.428,103.621,184.428z"/>
						<path style="fill:#362656;" d="M158.182,174.555h16.511c0.456,0,0.755-0.37,0.668-0.826c-0.087-0.456-0.527-0.826-0.983-0.826
							h-16.511c-0.456,0-0.755,0.37-0.668,0.826C157.286,174.185,157.726,174.555,158.182,174.555z"/>
						<path style="fill:#7859B5;" d="M177.995,174.555h1.651c0.456,0,0.755-0.37,0.668-0.826c-0.087-0.456-0.527-0.826-0.983-0.826
							h-1.651c-0.456,0-0.755,0.37-0.668,0.826C177.099,174.185,177.539,174.555,177.995,174.555z"/>
						<path style="fill:#735F99;" d="M182.948,174.555h5.366c0.456,0,0.755-0.37,0.668-0.826c-0.087-0.456-0.527-0.826-0.983-0.826
							h-5.366c-0.456,0-0.755,0.37-0.668,0.826C182.052,174.185,182.492,174.555,182.948,174.555z"/>
						<path style="fill:#735F99;" d="M146.624,174.555h8.255c0.456,0,0.755-0.37,0.668-0.826c-0.087-0.456-0.527-0.826-0.983-0.826
							h-8.255c-0.456,0-0.755,0.37-0.668,0.826C145.728,174.185,146.168,174.555,146.624,174.555z"/>
						<path style="fill:#735F99;" d="M166.263,178.666c-0.087-0.456-0.527-0.826-0.983-0.826h-18.162
							c-0.456,0-0.755,0.37-0.668,0.826c0.087,0.456,0.527,0.826,0.983,0.826h18.162
							C166.051,179.491,166.35,179.122,166.263,178.666z"/>
						<path style="fill:#735F99;" d="M188.826,177.84h-20.244c-0.456,0-0.755,0.37-0.668,0.826c0.087,0.456,0.527,0.826,0.983,0.826
							h20.244c0.456,0,0.755-0.37,0.668-0.826C189.722,178.21,189.282,177.84,188.826,177.84z"/>
						<path style="fill:#7859B5;" d="M181.526,184.428c0.456,0,0.755-0.37,0.668-0.826c-0.087-0.456-0.527-0.826-0.983-0.826h-1.651
							c-0.456,0-0.755,0.37-0.668,0.826c0.087,0.456,0.527,0.826,0.983,0.826H181.526z"/>
						<path style="fill:#5A91FF;" d="M183.846,183.602c0.087,0.456,0.527,0.826,0.983,0.826h5.366c0.456,0,0.755-0.37,0.668-0.826
							c-0.087-0.456-0.527-0.826-0.983-0.826h-5.366C184.058,182.776,183.759,183.146,183.846,183.602z"/>
						<path style="fill:#5A91FF;" d="M148.505,184.428h8.255c0.456,0,0.755-0.37,0.668-0.826c-0.087-0.456-0.527-0.826-0.983-0.826
							h-8.255c-0.456,0-0.755,0.37-0.668,0.826C147.609,184.058,148.049,184.428,148.505,184.428z"/>
						<path style="fill:#7859B5;" d="M160.062,184.428h16.511c0.456,0,0.755-0.37,0.668-0.826c-0.087-0.456-0.527-0.826-0.983-0.826
							h-16.511c-0.456,0-0.755,0.37-0.668,0.826C159.166,184.058,159.606,184.428,160.062,184.428z"/>
					</g>
				</g>
			</g>
		</g>
		<path style="fill:#6161C9;" d="M417.47,248.829H82.53c-1.098,0-1.987-0.89-1.987-1.987l0,0c0-1.098,0.89-1.987,1.987-1.987H417.47
			c1.098,0,1.987,0.89,1.987,1.987l0,0C419.458,247.939,418.568,248.829,417.47,248.829z"/>
		<path style="fill:#040962;" d="M440.436,245.762H59.564c-1.098,0-1.987-0.89-1.987-1.987v-6.198c0-1.098,0.89-1.987,1.987-1.987
			h380.872c1.098,0,1.987,0.89,1.987,1.987v6.198C442.423,244.872,441.534,245.762,440.436,245.762z"/>
		<path style="fill:#FCE8D4;" d="M282.351,217.677c0,0-8.062-2.66-12.875-4.225c-4.813-1.564-12.514,1.324-18.049,5.415
			c0,0-3.85,3.249-2.527,4.332c1.324,1.083,7.701-4.091,13.236-4.693c0,0-12.875,8.182-11.551,11.07
			c0.441,0.962,2.044,0.746,3.984,0.034c-0.292,0.529-0.382,0.988-0.11,1.289c0.684,0.759,4.398-0.584,7.769-2.028
			c-0.655,0.478-1.084,0.969-1.054,1.427c0.12,1.805,10.468-2.888,10.468-2.888s6.618,4.332,11.19,1.564
			C282.833,228.974,284.638,221.42,282.351,217.677z"/>
		<g>
			<path style="fill:#B4B0FA;" d="M277.981,230.418H131.388c-1.207,0-2.185,0.978-2.185,2.185v0.801
				c0,1.207,0.978,2.185,2.185,2.185h146.593c1.207,0,2.185-0.978,2.185-2.185v-0.801
				C280.166,231.396,279.188,230.418,277.981,230.418z"/>
			<path style="fill:#7F7FDD;" d="M234.941,155.488l14.993,70.98c0.46,2.18-0.936,3.95-3.106,3.95h-115.42
				c-2.18,0-4.324-1.77-4.784-3.95l-14.993-70.98c-0.46-2.18,0.938-3.94,3.118-3.94h115.42
				C232.339,151.548,234.481,153.308,234.941,155.488z"/>
			<path style="fill:#A4A4F4;" d="M231.311,155.488l14.993,70.98c0.461,2.18-0.926,3.95-3.106,3.95h-111.79
				c-2.18,0-4.324-1.77-4.784-3.95l-14.993-70.98c-0.46-2.18,0.938-3.94,3.118-3.94h111.79
				C228.719,151.548,230.851,153.308,231.311,155.488z"/>
			<path style="fill:#FFFFFF;" d="M175.359,198.376c-4.06,0-7.363-3.303-7.363-7.362c0-4.06,3.303-7.363,7.363-7.363
				c4.06,0,7.362,3.303,7.362,7.363C182.721,195.073,179.418,198.376,175.359,198.376z M175.359,186.65
				c-2.406,0-4.363,1.957-4.363,4.363c0,2.405,1.957,4.362,4.363,4.362c2.405,0,4.362-1.957,4.362-4.362
				C179.721,188.607,177.764,186.65,175.359,186.65z"/>
		</g>
	</g>
</g>
<g id="designed_by_freepik">
	<g>
		<g id="XMLID_319_">
			<g id="XMLID_338_">
				<path id="XMLID_346_" style="fill:#1D262D;" d="M260.104,465.465c-0.432,0.443-0.803,0.931-1.108,1.453l-0.465-0.241
					c-0.067-0.298-0.349-0.503-0.659-0.466c-0.331,0.039-0.568,0.339-0.529,0.67c0.039,0.331,0.339,0.568,0.67,0.529
					c0.065-0.008,0.127-0.026,0.183-0.052l0.452,0.234c-0.251,0.554-0.433,1.139-0.539,1.744l0.747,0.132
					c0.23-1.306,0.85-2.507,1.792-3.473L260.104,465.465z"/>
				<path id="XMLID_345_" style="fill:#1D262D;" d="M265.592,463.163c-0.171,0-0.341,0.006-0.51,0.017l-0.074-0.626
					c0.188-0.149,0.296-0.389,0.266-0.645c-0.046-0.393-0.402-0.674-0.795-0.628c-0.393,0.046-0.674,0.402-0.628,0.795
					c0.03,0.254,0.189,0.461,0.405,0.564l0.073,0.624c-0.714,0.116-1.403,0.332-2.06,0.646l0.327,0.684
					c0.934-0.447,1.942-0.673,2.995-0.673c0.496,0,0.993,0.053,1.475,0.158l0.161-0.741
					C266.692,463.222,266.142,463.163,265.592,463.163z"/>
				<path id="XMLID_344_" style="fill:#1D262D;" d="M272.194,465.711c0.331-0.04,0.566-0.341,0.526-0.672
					c-0.04-0.331-0.341-0.566-0.672-0.526c-0.309,0.038-0.535,0.304-0.53,0.609l-0.416,0.363c-0.418-0.43-0.89-0.813-1.408-1.139
					l-0.404,0.641c1.134,0.715,2.021,1.726,2.563,2.925l0.691-0.313c-0.251-0.554-0.568-1.072-0.942-1.545l0.402-0.351
					C272.065,465.716,272.129,465.719,272.194,465.711z"/>
				<path id="XMLID_343_" style="fill:#1D262D;" d="M265.044,473.372c-0.386,0.023-0.775,0.035-1.157,0.035
					c-0.88,0-1.733-0.061-2.478-0.179c-0.39-0.062-0.846-0.155-1.27-0.292c1.046,1.861,3.069,3.125,5.388,3.125
					c2.855,0,5.262-1.916,5.95-4.504c-0.682,0.449-1.505,0.825-2.459,1.123C267.839,473.047,266.464,473.286,265.044,473.372z"/>
				<path id="XMLID_339_" style="fill:#1D262D;" d="M265.592,464.68c-3.352,0-6.08,2.666-6.08,5.943
					c0,0.426,0.046,0.849,0.137,1.261c0.673,0.483,2.706,0.89,5.348,0.731c2.879-0.173,5.297-0.957,6.672-2.159
					c-0.005-0.195-0.021-0.39-0.045-0.582C271.244,466.913,268.65,464.68,265.592,464.68z M263.432,471.194
					c-1.02,0-1.85-0.83-1.85-1.85c0-1.02,0.83-1.85,1.85-1.85c1.02,0,1.85,0.83,1.85,1.85
					C265.282,470.365,264.452,471.194,263.432,471.194z M268.17,470.286c-0.75,0-1.36-0.61-1.36-1.36s0.61-1.361,1.36-1.361
					c0.75,0,1.361,0.61,1.361,1.361S268.92,470.286,268.17,470.286z"/>
			</g>
			<path id="XMLID_336_" style="fill:#1D262D;" d="M281.595,466.547c-0.295-0.116-0.805-0.309-1.382-0.237
				c-0.551,0.069-0.844,0.341-0.844,1.007v0.866h2.228v1.717h-2.228v5.455h-1.932v-5.455h-1.34v-1.717h1.34v-0.888
				c0-1.68,0.896-2.783,2.568-2.783c0.643,0,1.157,0.122,1.59,0.308L281.595,466.547z"/>
			<path id="XMLID_334_" style="fill:#1D262D;" d="M286.298,469.879c-0.177-0.03-0.358-0.046-0.526-0.046
				c-0.896,0-1.51,0.548-1.51,1.614v3.908h-1.932v-7.172h1.873v0.785c0.451-0.673,1.14-0.977,2.021-0.977
				c0.414,0,0.848,0.128,1.094,0.337L286.298,469.879z"/>
			<path id="XMLID_331_" style="fill:#1D262D;" d="M293.965,471.757c0,0.222-0.015,0.489-0.037,0.651h-5.085
				c0.207,1.036,0.933,1.488,1.843,1.488c0.622,0,1.295-0.252,1.813-0.688l1.132,1.243c-0.814,0.748-1.85,1.088-3.057,1.088
				c-2.198,0-3.723-1.495-3.723-3.753c0-2.258,1.48-3.797,3.627-3.797C292.544,467.99,293.958,469.522,293.965,471.757z
				 M288.851,471.091h3.175c-0.177-0.918-0.733-1.436-1.562-1.436C289.554,469.655,289.021,470.203,288.851,471.091z"/>
			<path id="XMLID_328_" style="fill:#1D262D;" d="M301.618,471.757c0,0.222-0.015,0.489-0.037,0.651h-5.085
				c0.207,1.036,0.933,1.488,1.843,1.488c0.622,0,1.295-0.252,1.813-0.688l1.132,1.243c-0.814,0.748-1.85,1.088-3.057,1.088
				c-2.198,0-3.723-1.495-3.723-3.753c0-2.258,1.48-3.797,3.627-3.797C300.197,467.99,301.611,469.522,301.618,471.757z
				 M296.504,471.091h3.175c-0.178-0.918-0.733-1.436-1.562-1.436C297.207,469.655,296.674,470.203,296.504,471.091z"/>
			<path id="XMLID_325_" style="fill:#1D262D;" d="M309.964,471.764c0,2.154-1.495,3.775-3.471,3.775
				c-0.962,0-1.643-0.378-2.109-0.933v3.708h-1.924v-10.133h1.887v0.792c0.466-0.585,1.155-0.984,2.139-0.984
				C308.469,467.99,309.964,469.61,309.964,471.764z M304.287,471.764c0,1.132,0.747,1.976,1.843,1.976
				c1.14,0,1.85-0.881,1.85-1.976c0-1.095-0.71-1.976-1.85-1.976C305.035,469.788,304.287,470.632,304.287,471.764z"/>
			<path id="XMLID_322_" style="fill:#1D262D;" d="M313.068,465.836c0,0.696-0.54,1.229-1.236,1.229
				c-0.696,0-1.229-0.533-1.229-1.229c0-0.696,0.533-1.243,1.229-1.243C312.527,464.592,313.068,465.14,313.068,465.836z
				 M312.809,475.354h-1.932v-7.172h1.932V475.354z"/>
			<path id="XMLID_320_" style="fill:#1D262D;" d="M316.032,470.736l2.701-2.554h2.368l-3.479,3.375l3.501,3.797h-2.376
				l-2.716-2.901v2.901H314.1v-10.658h1.932V470.736z"/>
		</g>
		<g>
			<path style="fill:#1D262D;" d="M184.412,475.289v-1.055c-0.527,0.718-1.391,1.23-2.387,1.23c-1.846,0-3.149-1.406-3.149-3.706
				c0-2.256,1.289-3.721,3.149-3.721c0.952,0,1.816,0.469,2.387,1.245v-3.765h1.099v9.77H184.412z M184.412,473.37v-3.208
				c-0.395-0.615-1.245-1.143-2.124-1.143c-1.421,0-2.27,1.172-2.27,2.739c0,1.567,0.85,2.724,2.27,2.724
				C183.168,474.483,184.017,473.986,184.412,473.37z"/>
			<path style="fill:#1D262D;" d="M186.932,471.744c0-2.051,1.465-3.706,3.486-3.706c2.139,0,3.398,1.67,3.398,3.794v0.279h-5.727
				c0.088,1.333,1.025,2.446,2.549,2.446c0.805,0,1.626-0.322,2.182-0.894l0.527,0.718c-0.703,0.703-1.655,1.084-2.812,1.084
				C188.44,475.465,186.932,473.956,186.932,471.744z M190.403,468.947c-1.509,0-2.256,1.274-2.314,2.358h4.643
				C192.718,470.25,192.015,468.947,190.403,468.947z"/>
			<path style="fill:#1D262D;" d="M194.607,474.351l0.571-0.791c0.469,0.542,1.362,1.011,2.329,1.011c1.084,0,1.67-0.513,1.67-1.216
				c0-1.714-4.38-0.659-4.38-3.281c0-1.098,0.952-2.036,2.636-2.036c1.201,0,2.051,0.454,2.622,1.026l-0.513,0.762
				c-0.424-0.513-1.201-0.894-2.109-0.894c-0.967,0-1.567,0.483-1.567,1.113c0,1.552,4.38,0.527,4.38,3.281
				c0,1.187-0.952,2.138-2.783,2.138C196.306,475.465,195.325,475.113,194.607,474.351z"/>
			<path style="fill:#1D262D;" d="M201.477,466.471c0-0.41,0.337-0.747,0.732-0.747c0.41,0,0.747,0.337,0.747,0.747
				c0,0.41-0.337,0.732-0.747,0.732C201.814,467.203,201.477,466.881,201.477,466.471z M201.667,475.289v-7.075h1.099v7.075H201.667
				z"/>
			<path style="fill:#1D262D;" d="M204.582,477.105l0.556-0.82c0.586,0.703,1.289,0.967,2.3,0.967c1.172,0,2.27-0.571,2.27-2.124
				v-1.011c-0.513,0.718-1.377,1.26-2.373,1.26c-1.845,0-3.149-1.377-3.149-3.662c0-2.27,1.289-3.677,3.149-3.677
				c0.952,0,1.802,0.469,2.373,1.245v-1.069h1.098v6.87c0,2.344-1.641,3.076-3.369,3.076
				C206.237,478.16,205.417,477.926,204.582,477.105z M209.709,473.253v-3.091c-0.381-0.615-1.23-1.143-2.109-1.143
				c-1.421,0-2.27,1.128-2.27,2.695c0,1.553,0.849,2.695,2.27,2.695C208.478,474.41,209.328,473.868,209.709,473.253z"/>
			<path style="fill:#1D262D;" d="M217.413,475.289v-4.629c0-1.245-0.63-1.641-1.582-1.641c-0.865,0-1.685,0.527-2.095,1.099v5.17
				h-1.099v-7.075h1.099v1.025c0.498-0.586,1.465-1.201,2.519-1.201c1.48,0,2.256,0.747,2.256,2.285v4.966H217.413z"/>
			<path style="fill:#1D262D;" d="M219.932,471.744c0-2.051,1.465-3.706,3.486-3.706c2.139,0,3.398,1.67,3.398,3.794v0.279h-5.727
				c0.088,1.333,1.025,2.446,2.549,2.446c0.806,0,1.626-0.322,2.183-0.894l0.527,0.718c-0.703,0.703-1.655,1.084-2.812,1.084
				C221.441,475.465,219.932,473.956,219.932,471.744z M223.404,468.947c-1.509,0-2.256,1.274-2.314,2.358h4.643
				C225.718,470.25,225.015,468.947,223.404,468.947z"/>
			<path style="fill:#1D262D;" d="M233.35,475.289v-1.055c-0.527,0.718-1.392,1.23-2.388,1.23c-1.846,0-3.149-1.406-3.149-3.706
				c0-2.256,1.289-3.721,3.149-3.721c0.952,0,1.817,0.469,2.388,1.245v-3.765h1.098v9.77H233.35z M233.35,473.37v-3.208
				c-0.396-0.615-1.245-1.143-2.124-1.143c-1.421,0-2.27,1.172-2.27,2.739c0,1.567,0.849,2.724,2.27,2.724
				C232.105,474.483,232.954,473.986,233.35,473.37z"/>
			<path style="fill:#1D262D;" d="M239.692,475.289v-9.77h1.098v3.765c0.572-0.776,1.421-1.245,2.388-1.245
				c1.845,0,3.149,1.465,3.149,3.721c0,2.299-1.304,3.706-3.149,3.706c-0.996,0-1.86-0.513-2.388-1.23v1.055H239.692z
				 M242.9,474.483c1.436,0,2.285-1.157,2.285-2.724c0-1.568-0.85-2.739-2.285-2.739c-0.864,0-1.728,0.527-2.109,1.143v3.208
				C241.171,473.986,242.036,474.483,242.9,474.483z"/>
			<path style="fill:#1D262D;" d="M247.528,477.061c0.161,0.073,0.425,0.117,0.601,0.117c0.483,0,0.805-0.161,1.055-0.747
				l0.469-1.069l-2.959-7.148h1.187l2.358,5.8l2.344-5.8h1.201l-3.545,8.51c-0.425,1.025-1.143,1.421-2.08,1.435
				c-0.234,0-0.601-0.044-0.806-0.103L247.528,477.061z"/>
		</g>
	</g>
</g>
</svg>
